<?xml version="1.0" encoding="UTF-8" standalone="no"?>
<!DOCTYPE svg PUBLIC "-//W3C//DTD SVG 1.1//EN"
 "http://www.w3.org/Graphics/SVG/1.1/DTD/svg11.dtd">
<!-- Generated by graphviz version 2.47.0 (20210316.0004)
 -->
<!-- Title: dependencies Pages: 1 -->
<svg width="504pt" height="211pt"
 viewBox="0.00 0.00 504.00 211.00" xmlns="http://www.w3.org/2000/svg" xmlns:xlink="http://www.w3.org/1999/xlink">
<g id="graph0" class="graph" transform="scale(1 1) rotate(0) translate(4 207)">
<title>dependencies</title>
<polygon fill="white" stroke="transparent" points="-4,4 -4,-207 500,-207 500,4 -4,4"/>
<text text-anchor="start" x="227.01" y="-42.4" font-family="Times-12" font-weight="bold" font-size="14.00">Legend</text>
<polygon fill="#ffffb3" stroke="transparent" points="14,-10 14,-30 34,-30 34,-10 14,-10"/>
<text text-anchor="start" x="37.63" y="-15.4" font-family="Times-12" font-size="14.00"> &#160;Declarations</text>
<polygon fill="#8dd3c7" stroke="transparent" points="127,-10 127,-30 147,-30 147,-10 127,-10"/>
<text text-anchor="start" x="150.73" y="-15.4" font-family="Times-12" font-size="14.00"> &#160;Module</text>
<polygon fill="#80b1d3" stroke="transparent" points="213,-10 213,-30 233,-30 233,-10 213,-10"/>
<text text-anchor="start" x="236.78" y="-15.4" font-family="Times-12" font-size="14.00"> &#160;Bootstrap</text>
<polygon fill="#fdb462" stroke="transparent" points="310,-10 310,-30 330,-30 330,-10 310,-10"/>
<text text-anchor="start" x="333.67" y="-15.4" font-family="Times-12" font-size="14.00"> &#160;Providers</text>
<polygon fill="#fb8072" stroke="transparent" points="406,-10 406,-30 426,-30 426,-10 406,-10"/>
<text text-anchor="start" x="429.73" y="-15.4" font-family="Times-12" font-size="14.00"> &#160;Exports</text>
<g id="clust1" class="cluster">
<title>cluster_AdminModule</title>
<polygon fill="none" stroke="black" stroke-dasharray="1,5" points="61,-70 61,-195 435,-195 435,-70 61,-70"/>
</g>
<g id="clust3" class="cluster">
<title>cluster_AdminModule_imports</title>
<polygon fill="none" stroke="black" points="69,-78 69,-130 427,-130 427,-78 69,-78"/>
</g>
<!-- AdminDashboardComponent -->
<g id="node1" class="node">
<title>AdminDashboardComponent</title>
<polygon fill="#8dd3c7" stroke="black" points="419.36,-122 416.36,-126 395.36,-126 392.36,-122 238.64,-122 238.64,-86 419.36,-86 419.36,-122"/>
<text text-anchor="middle" x="329" y="-99.8" font-family="Times,serif" font-size="14.00">AdminDashboardComponent</text>
</g>
<!-- AdminModule -->
<g id="node3" class="node">
<title>AdminModule</title>
<polygon fill="#8dd3c7" stroke="black" points="288.44,-187 285.44,-191 264.44,-191 261.44,-187 189.56,-187 189.56,-151 288.44,-151 288.44,-187"/>
<text text-anchor="middle" x="239" y="-164.8" font-family="Times,serif" font-size="14.00">AdminModule</text>
</g>
<!-- AdminDashboardComponent&#45;&gt;AdminModule -->
<g id="edge1" class="edge">
<title>AdminDashboardComponent&#45;&gt;AdminModule</title>
<path fill="none" stroke="black" d="M263.39,-122.11C263.39,-122.11 263.39,-140.99 263.39,-140.99"/>
<polygon fill="black" stroke="black" points="259.89,-140.99 263.39,-150.99 266.89,-140.99 259.89,-140.99"/>
</g>
<!-- AdminRoutingModule -->
<g id="node2" class="node">
<title>AdminRoutingModule</title>
<polygon fill="#8dd3c7" stroke="black" points="220.56,-122 217.56,-126 196.56,-126 193.56,-122 77.44,-122 77.44,-86 220.56,-86 220.56,-122"/>
<text text-anchor="middle" x="149" y="-99.8" font-family="Times,serif" font-size="14.00">AdminRoutingModule</text>
</g>
<!-- AdminRoutingModule&#45;&gt;AdminModule -->
<g id="edge2" class="edge">
<title>AdminRoutingModule&#45;&gt;AdminModule</title>
<path fill="none" stroke="black" d="M205.28,-122.11C205.28,-122.11 205.28,-140.99 205.28,-140.99"/>
<polygon fill="black" stroke="black" points="201.78,-140.99 205.28,-150.99 208.78,-140.99 201.78,-140.99"/>
</g>
</g>
</svg>
