<?xml version="1.0" encoding="UTF-8" standalone="no"?>
<!DOCTYPE svg PUBLIC "-//W3C//DTD SVG 1.1//EN"
 "http://www.w3.org/Graphics/SVG/1.1/DTD/svg11.dtd">
<!-- Generated by graphviz version 2.47.0 (20210316.0004)
 -->
<!-- Title: dependencies Pages: 1 -->
<svg width="1136pt" height="211pt"
 viewBox="0.00 0.00 1136.00 211.00" xmlns="http://www.w3.org/2000/svg" xmlns:xlink="http://www.w3.org/1999/xlink">
<g id="graph0" class="graph" transform="scale(1 1) rotate(0) translate(4 207)">
<title>dependencies</title>
<polygon fill="white" stroke="transparent" points="-4,4 -4,-207 1132,-207 1132,4 -4,4"/>
<text text-anchor="start" x="543.01" y="-42.4" font-family="Times-12" font-weight="bold" font-size="14.00">Legend</text>
<polygon fill="#ffffb3" stroke="transparent" points="330,-10 330,-30 350,-30 350,-10 330,-10"/>
<text text-anchor="start" x="353.63" y="-15.4" font-family="Times-12" font-size="14.00"> &#160;Declarations</text>
<polygon fill="#8dd3c7" stroke="transparent" points="443,-10 443,-30 463,-30 463,-10 443,-10"/>
<text text-anchor="start" x="466.73" y="-15.4" font-family="Times-12" font-size="14.00"> &#160;Module</text>
<polygon fill="#80b1d3" stroke="transparent" points="529,-10 529,-30 549,-30 549,-10 529,-10"/>
<text text-anchor="start" x="552.78" y="-15.4" font-family="Times-12" font-size="14.00"> &#160;Bootstrap</text>
<polygon fill="#fdb462" stroke="transparent" points="626,-10 626,-30 646,-30 646,-10 626,-10"/>
<text text-anchor="start" x="649.67" y="-15.4" font-family="Times-12" font-size="14.00"> &#160;Providers</text>
<polygon fill="#fb8072" stroke="transparent" points="722,-10 722,-30 742,-30 742,-10 722,-10"/>
<text text-anchor="start" x="745.73" y="-15.4" font-family="Times-12" font-size="14.00"> &#160;Exports</text>
<g id="clust1" class="cluster">
<title>cluster_AdminModule</title>
<polygon fill="none" stroke="black" stroke-dasharray="1,5" points="8,-70 8,-195 382,-195 382,-70 8,-70"/>
</g>
<g id="clust3" class="cluster">
<title>cluster_AdminModule_imports</title>
<polygon fill="none" stroke="black" points="16,-78 16,-130 374,-130 374,-78 16,-78"/>
</g>
<g id="clust13" class="cluster">
<title>cluster_AuthModule</title>
<polygon fill="none" stroke="black" stroke-dasharray="1,5" points="390,-70 390,-195 554,-195 554,-70 390,-70"/>
</g>
<g id="clust15" class="cluster">
<title>cluster_AuthModule_imports</title>
<polygon fill="none" stroke="black" points="398,-78 398,-130 546,-130 546,-78 398,-78"/>
</g>
<g id="clust25" class="cluster">
<title>cluster_ClientModule</title>
<polygon fill="none" stroke="black" stroke-dasharray="1,5" points="562,-70 562,-195 732,-195 732,-70 562,-70"/>
</g>
<g id="clust27" class="cluster">
<title>cluster_ClientModule_imports</title>
<polygon fill="none" stroke="black" points="570,-78 570,-130 724,-130 724,-78 570,-78"/>
</g>
<g id="clust37" class="cluster">
<title>cluster_ManagerModule</title>
<polygon fill="none" stroke="black" stroke-dasharray="1,5" points="740,-70 740,-195 926,-195 926,-70 740,-70"/>
</g>
<g id="clust39" class="cluster">
<title>cluster_ManagerModule_imports</title>
<polygon fill="none" stroke="black" points="748,-78 748,-130 918,-130 918,-78 748,-78"/>
</g>
<g id="clust49" class="cluster">
<title>cluster_WaitressModule</title>
<polygon fill="none" stroke="black" stroke-dasharray="1,5" points="934,-70 934,-195 1120,-195 1120,-70 934,-70"/>
</g>
<g id="clust51" class="cluster">
<title>cluster_WaitressModule_imports</title>
<polygon fill="none" stroke="black" points="942,-78 942,-130 1112,-130 1112,-78 942,-78"/>
</g>
<!-- AdminDashboardComponent -->
<g id="node1" class="node">
<title>AdminDashboardComponent</title>
<polygon fill="#8dd3c7" stroke="black" points="366.36,-122 363.36,-126 342.36,-126 339.36,-122 185.64,-122 185.64,-86 366.36,-86 366.36,-122"/>
<text text-anchor="middle" x="276" y="-99.8" font-family="Times,serif" font-size="14.00">AdminDashboardComponent</text>
</g>
<!-- AdminModule -->
<g id="node3" class="node">
<title>AdminModule</title>
<polygon fill="#8dd3c7" stroke="black" points="235.44,-187 232.44,-191 211.44,-191 208.44,-187 136.56,-187 136.56,-151 235.44,-151 235.44,-187"/>
<text text-anchor="middle" x="186" y="-164.8" font-family="Times,serif" font-size="14.00">AdminModule</text>
</g>
<!-- AdminDashboardComponent&#45;&gt;AdminModule -->
<g id="edge1" class="edge">
<title>AdminDashboardComponent&#45;&gt;AdminModule</title>
<path fill="none" stroke="black" d="M210.39,-122.11C210.39,-122.11 210.39,-140.99 210.39,-140.99"/>
<polygon fill="black" stroke="black" points="206.89,-140.99 210.39,-150.99 213.89,-140.99 206.89,-140.99"/>
</g>
<!-- AdminRoutingModule -->
<g id="node2" class="node">
<title>AdminRoutingModule</title>
<polygon fill="#8dd3c7" stroke="black" points="167.56,-122 164.56,-126 143.56,-126 140.56,-122 24.44,-122 24.44,-86 167.56,-86 167.56,-122"/>
<text text-anchor="middle" x="96" y="-99.8" font-family="Times,serif" font-size="14.00">AdminRoutingModule</text>
</g>
<!-- AdminRoutingModule&#45;&gt;AdminModule -->
<g id="edge2" class="edge">
<title>AdminRoutingModule&#45;&gt;AdminModule</title>
<path fill="none" stroke="black" d="M152.28,-122.11C152.28,-122.11 152.28,-140.99 152.28,-140.99"/>
<polygon fill="black" stroke="black" points="148.78,-140.99 152.28,-150.99 155.78,-140.99 148.78,-140.99"/>
</g>
<!-- AuthRoutingModule -->
<g id="node4" class="node">
<title>AuthRoutingModule</title>
<polygon fill="#8dd3c7" stroke="black" points="538.17,-122 535.17,-126 514.17,-126 511.17,-122 405.83,-122 405.83,-86 538.17,-86 538.17,-122"/>
<text text-anchor="middle" x="472" y="-99.8" font-family="Times,serif" font-size="14.00">AuthRoutingModule</text>
</g>
<!-- AuthModule -->
<g id="node5" class="node">
<title>AuthModule</title>
<polygon fill="#8dd3c7" stroke="black" points="515.55,-187 512.55,-191 491.55,-191 488.55,-187 428.45,-187 428.45,-151 515.55,-151 515.55,-187"/>
<text text-anchor="middle" x="472" y="-164.8" font-family="Times,serif" font-size="14.00">AuthModule</text>
</g>
<!-- AuthRoutingModule&#45;&gt;AuthModule -->
<g id="edge3" class="edge">
<title>AuthRoutingModule&#45;&gt;AuthModule</title>
<path fill="none" stroke="black" d="M472,-122.11C472,-122.11 472,-140.99 472,-140.99"/>
<polygon fill="black" stroke="black" points="468.5,-140.99 472,-150.99 475.5,-140.99 468.5,-140.99"/>
</g>
<!-- ClientRoutingModule -->
<g id="node6" class="node">
<title>ClientRoutingModule</title>
<polygon fill="#8dd3c7" stroke="black" points="716.39,-122 713.39,-126 692.39,-126 689.39,-122 577.61,-122 577.61,-86 716.39,-86 716.39,-122"/>
<text text-anchor="middle" x="647" y="-99.8" font-family="Times,serif" font-size="14.00">ClientRoutingModule</text>
</g>
<!-- ClientModule -->
<g id="node7" class="node">
<title>ClientModule</title>
<polygon fill="#8dd3c7" stroke="black" points="693.77,-187 690.77,-191 669.77,-191 666.77,-187 600.23,-187 600.23,-151 693.77,-151 693.77,-187"/>
<text text-anchor="middle" x="647" y="-164.8" font-family="Times,serif" font-size="14.00">ClientModule</text>
</g>
<!-- ClientRoutingModule&#45;&gt;ClientModule -->
<g id="edge4" class="edge">
<title>ClientRoutingModule&#45;&gt;ClientModule</title>
<path fill="none" stroke="black" d="M647,-122.11C647,-122.11 647,-140.99 647,-140.99"/>
<polygon fill="black" stroke="black" points="643.5,-140.99 647,-150.99 650.5,-140.99 643.5,-140.99"/>
</g>
<!-- ManagerRoutingModule -->
<g id="node8" class="node">
<title>ManagerRoutingModule</title>
<polygon fill="#8dd3c7" stroke="black" points="910.42,-122 907.42,-126 886.42,-126 883.42,-122 755.58,-122 755.58,-86 910.42,-86 910.42,-122"/>
<text text-anchor="middle" x="833" y="-99.8" font-family="Times,serif" font-size="14.00">ManagerRoutingModule</text>
</g>
<!-- ManagerModule -->
<g id="node9" class="node">
<title>ManagerModule</title>
<polygon fill="#8dd3c7" stroke="black" points="887.8,-187 884.8,-191 863.8,-191 860.8,-187 778.2,-187 778.2,-151 887.8,-151 887.8,-187"/>
<text text-anchor="middle" x="833" y="-164.8" font-family="Times,serif" font-size="14.00">ManagerModule</text>
</g>
<!-- ManagerRoutingModule&#45;&gt;ManagerModule -->
<g id="edge5" class="edge">
<title>ManagerRoutingModule&#45;&gt;ManagerModule</title>
<path fill="none" stroke="black" d="M833,-122.11C833,-122.11 833,-140.99 833,-140.99"/>
<polygon fill="black" stroke="black" points="829.5,-140.99 833,-150.99 836.5,-140.99 829.5,-140.99"/>
</g>
<!-- WaitressRoutingModule -->
<g id="node10" class="node">
<title>WaitressRoutingModule</title>
<polygon fill="#8dd3c7" stroke="black" points="1103.64,-122 1100.64,-126 1079.64,-126 1076.64,-122 950.36,-122 950.36,-86 1103.64,-86 1103.64,-122"/>
<text text-anchor="middle" x="1027" y="-99.8" font-family="Times,serif" font-size="14.00">WaitressRoutingModule</text>
</g>
<!-- WaitressModule -->
<g id="node11" class="node">
<title>WaitressModule</title>
<polygon fill="#8dd3c7" stroke="black" points="1081.03,-187 1078.03,-191 1057.03,-191 1054.03,-187 972.97,-187 972.97,-151 1081.03,-151 1081.03,-187"/>
<text text-anchor="middle" x="1027" y="-164.8" font-family="Times,serif" font-size="14.00">WaitressModule</text>
</g>
<!-- WaitressRoutingModule&#45;&gt;WaitressModule -->
<g id="edge6" class="edge">
<title>WaitressRoutingModule&#45;&gt;WaitressModule</title>
<path fill="none" stroke="black" d="M1027,-122.11C1027,-122.11 1027,-140.99 1027,-140.99"/>
<polygon fill="black" stroke="black" points="1023.5,-140.99 1027,-150.99 1030.5,-140.99 1023.5,-140.99"/>
</g>
</g>
</svg>
